<svg xmlns="http://www.w3.org/2000/svg" width="24" height="24" fill="currentColor" viewBox="0 0 24 24">
  
  <path d="M9 19v-2h12v2H9Zm0-6v-2h12v2H9Zm0-6V5h12v2H9ZM5 20a1.93 1.93 0 0 1-1.413-.587A1.928 1.928 0 0 1 3 18c0-.55.196-1.021.587-1.413A1.928 1.928 0 0 1 5 16c.55 0 1.02.196 1.412.587.392.392.588.863.588 1.413s-.196 1.021-.588 1.413A1.925 1.925 0 0 1 5 20Zm0-6c-.55 0-1.021-.196-1.413-.588A1.925 1.925 0 0 1 3 12c0-.55.196-1.021.587-1.413A1.928 1.928 0 0 1 5 10c.55 0 1.02.196 1.412.587.392.392.588.863.588 1.413s-.196 1.02-.588 1.412A1.923 1.923 0 0 1 5 14Zm0-6c-.55 0-1.021-.196-1.413-.588A1.925 1.925 0 0 1 3 6c0-.55.196-1.02.587-1.412A1.927 1.927 0 0 1 5 4c.55 0 1.02.196 1.412.588C6.804 4.979 7 5.45 7 6c0 .55-.196 1.02-.588 1.412A1.923 1.923 0 0 1 5 8Z"/>
</svg>
