<svg xmlns="http://www.w3.org/2000/svg" width="24" height="24" fill="currentColor" viewBox="0 0 24 24">
  
  <path d="M6.8 19V5h5.525c1.083 0 2.083.333 3 1 .917.667 1.375 1.592 1.375 2.775 0 .85-.192 1.504-.575 1.962-.383.459-.742.788-1.075.988.417.183.88.525 1.388 1.025.508.5.762 1.25.762 2.25 0 1.483-.542 2.521-1.625 3.113-1.083.591-2.1.887-3.05.887H6.8Zm3.025-2.8h2.6c.8 0 1.287-.204 1.462-.613.175-.408.263-.704.263-.887 0-.183-.088-.48-.263-.888-.175-.408-.687-.612-1.537-.612H9.825v3Zm0-5.7h2.325c.55 0 .95-.142 1.2-.425a1.4 1.4 0 0 0 .375-.95c0-.4-.142-.725-.425-.975-.283-.25-.65-.375-1.1-.375H9.825V10.5Z"/>
</svg>
