<svg xmlns="http://www.w3.org/2000/svg" width="24" height="24" fill="currentColor" viewBox="0 0 24 24">
  
  <path d="M11 17H7c-1.383 0-2.562-.488-3.537-1.463C2.488 14.562 2 13.383 2 12s.488-2.563 1.463-3.538C4.438 7.487 5.617 7 7 7h4v2H7c-.833 0-1.542.292-2.125.875A2.893 2.893 0 0 0 4 12c0 .833.292 1.542.875 2.125A2.893 2.893 0 0 0 7 15h4v2Zm-3-4v-2h8v2H8Zm5 4v-2h4c.833 0 1.542-.292 2.125-.875A2.893 2.893 0 0 0 20 12c0-.833-.292-1.542-.875-2.125A2.893 2.893 0 0 0 17 9h-4V7h4c1.383 0 2.563.487 3.538 1.462C21.513 9.437 22 10.617 22 12s-.487 2.562-1.462 3.537C19.563 16.512 18.383 17 17 17h-4Z"/>
</svg>
