<svg xmlns="http://www.w3.org/2000/svg" width="24" height="24" fill="currentColor" viewBox="0 0 24 24">
  
  <path d="m19.25 16.45-1.5-1.55a3.05 3.05 0 0 0 1.625-1.063A2.867 2.867 0 0 0 20 12c0-.833-.292-1.542-.875-2.125A2.893 2.893 0 0 0 17 9h-4V7h4c1.383 0 2.563.487 3.538 1.462C21.513 9.437 22 10.617 22 12c0 .95-.246 1.825-.737 2.625a4.79 4.79 0 0 1-2.013 1.825ZM15.85 13l-2-2H16v2h-.15Zm3.95 9.6L1.4 4.2l1.4-1.4 18.4 18.4-1.4 1.4ZM11 17H7c-1.383 0-2.562-.488-3.537-1.463C2.488 14.562 2 13.383 2 12c0-1.15.35-2.175 1.05-3.075.7-.9 1.6-1.492 2.7-1.775L7.6 9H7c-.833 0-1.542.292-2.125.875A2.893 2.893 0 0 0 4 12c0 .833.292 1.542.875 2.125A2.893 2.893 0 0 0 7 15h4v2Zm-3-4v-2h1.625l1.975 2H8Z"/>
</svg>
