<svg width="24" height="24" viewBox="0 0 24 24" fill="none" xmlns="http://www.w3.org/2000/svg">
<mask id="mask0_318_249" style="mask-type:alpha" maskUnits="userSpaceOnUse" x="0" y="0" width="24" height="24">
<rect width="24" height="24" fill="#D9D9D9"/>
</mask>
<g mask="url(#mask0_318_249)">
<path d="M5 22V20H19V22H5Z" fill="black"/>
<path d="M6.80005 18V4H12.325C13.4084 4 14.4084 4.33333 15.325 5C16.2417 5.66667 16.7001 6.59167 16.7001 7.775C16.7001 8.625 16.5084 9.279 16.125 9.737C15.7417 10.1957 15.3834 10.525 15.05 10.725C15.4667 10.9083 15.9294 11.25 16.438 11.75C16.946 12.25 17.2001 13 17.2001 14C17.2001 15.4833 16.6584 16.521 15.575 17.113C14.4917 17.7043 13.475 18 12.525 18H6.80005ZM9.82505 15.2H12.425C13.225 15.2 13.7124 14.9957 13.887 14.587C14.0624 14.179 14.15 13.8833 14.15 13.7C14.15 13.5167 14.0624 13.2207 13.887 12.812C13.7124 12.404 13.2 12.2 12.35 12.2H9.82505V15.2ZM9.82505 9.5H12.15C12.7 9.5 13.1 9.35833 13.35 9.075C13.6 8.79167 13.725 8.475 13.725 8.125C13.725 7.725 13.5834 7.4 13.3 7.15C13.0167 6.9 12.65 6.775 12.2 6.775H9.82505V9.5Z" fill="black"/>
</g>
</svg>
