<svg width="24" height="24" viewBox="0 0 24 24" fill="none" xmlns="http://www.w3.org/2000/svg">
<path d="M12.15 20C10.8833 20 9.75833 19.625 8.775 18.875C7.79167 18.125 7.08333 17.1 6.65 15.8L8.85 14.85C9.08333 15.65 9.4875 16.3083 10.0625 16.825C10.6375 17.3416 11.35 17.6 12.2 17.6C12.9 17.6 13.5333 17.4333 14.1 17.1C14.6667 16.7666 14.95 16.2333 14.95 15.5C14.95 15.2 14.8917 14.925 14.775 14.675C14.6583 14.425 14.5 14.2 14.3 14H17.1C17.1833 14.2333 17.2458 14.4708 17.2875 14.7125C17.3292 14.9541 17.35 15.2166 17.35 15.5C17.35 16.9333 16.8375 18.0416 15.8125 18.825C14.7875 19.6083 13.5667 20 12.15 20ZM2 12V9.99998H22V12H2ZM12.05 3.84998C13.15 3.84998 14.1125 4.12081 14.9375 4.66248C15.7625 5.20414 16.4 6.03331 16.85 7.14998L14.65 8.12498C14.5 7.64164 14.2208 7.20831 13.8125 6.82498C13.4042 6.44164 12.8333 6.24998 12.1 6.24998C11.4167 6.24998 10.85 6.40414 10.4 6.71248C9.95 7.02081 9.7 7.44998 9.65 7.99998H7.25C7.28333 6.84998 7.7375 5.87081 8.6125 5.06248C9.4875 4.25414 10.6333 3.84998 12.05 3.84998Z" fill="black"/>
</svg>
