<svg xmlns="http://www.w3.org/2000/svg" width="24" height="24" fill="currentColor" viewBox="0 0 24 24">
  <mask id="a" width="24" height="24" x="0" y="0" maskUnits="userSpaceOnUse" style="mask-type:alpha">
    <path d="M0 0h24v24H0z"/>
  </mask>
  <g mask="url(#a)">
    <path d="m9.25 22-.4-3.2a3.79 3.79 0 0 1-.613-.3 8.266 8.266 0 0 1-.562-.375L4.7 19.375l-2.75-4.75 2.575-1.95a2.387 2.387 0 0 1-.025-.338v-.675c0-.108.008-.22.025-.337L1.95 9.375l2.75-4.75 2.975 1.25c.183-.133.375-.258.575-.375.2-.117.4-.217.6-.3l.4-3.2h5.5l.4 3.2c.217.083.42.183.612.3.192.117.38.242.563.375l2.975-1.25 2.75 4.75-2.575 1.95c.017.117.025.23.025.338v.675c0 .108-.017.22-.05.337l2.575 1.95-2.75 4.75-2.95-1.25a6.842 6.842 0 0 1-.575.375c-.2.117-.4.217-.6.3l-.4 3.2h-5.5Zm2.8-6.5c.967 0 1.792-.342 2.475-1.025A3.372 3.372 0 0 0 15.55 12c0-.967-.342-1.792-1.025-2.475A3.373 3.373 0 0 0 12.05 8.5c-.983 0-1.813.342-2.488 1.025A3.393 3.393 0 0 0 8.55 12c0 .967.337 1.792 1.012 2.475.676.683 1.505 1.025 2.488 1.025Zm0-2c-.417 0-.77-.146-1.063-.438A1.446 1.446 0 0 1 10.55 12c0-.417.146-.77.438-1.063a1.446 1.446 0 0 1 1.062-.437c.417 0 .77.146 1.063.438.291.291.437.645.437 1.062 0 .417-.146.77-.438 1.063a1.447 1.447 0 0 1-1.062.437ZM11 20h1.975l.35-2.65a5.61 5.61 0 0 0 1.438-.588c.441-.258.845-.57 1.212-.937l2.475 1.025.975-1.7-2.15-1.625c.083-.233.142-.48.175-.738a6.153 6.153 0 0 0 0-1.575 3.535 3.535 0 0 0-.175-.737l2.15-1.625-.975-1.7-2.475 1.05a5.556 5.556 0 0 0-1.213-.962 5.607 5.607 0 0 0-1.437-.588L13 4h-1.975l-.35 2.65c-.517.133-.996.33-1.438.587a6.015 6.015 0 0 0-1.212.938L5.55 7.15l-.975 1.7 2.15 1.6c-.083.25-.142.5-.175.75a6.122 6.122 0 0 0 0 1.575c.033.25.092.5.175.75l-2.15 1.625.975 1.7 2.475-1.05c.367.383.77.704 1.212.962.442.259.921.455 1.438.588L11 20Z"/>
  </g>
</svg>
