<svg width="24" height="24" viewBox="0 0 24 24" fill="none" xmlns="http://www.w3.org/2000/svg">
<mask id="mask0_318_249" style="mask-type:alpha" maskUnits="userSpaceOnUse" x="0" y="0" width="24" height="24">
<rect width="24" height="24" fill="#D9D9D9"/>
</mask>
<g mask="url(#mask0_318_249)">
<path d="M5 21V19H19V21H5Z" fill="black"/>
<path d="M6.80005 17V3H12.325C13.4084 3 14.4084 3.33333 15.325 4C16.2417 4.66667 16.7001 5.59167 16.7001 6.775C16.7001 7.625 16.5084 8.279 16.125 8.737C15.7417 9.19567 15.3834 9.525 15.05 9.725C15.4667 9.90833 15.9294 10.25 16.438 10.75C16.946 11.25 17.2001 12 17.2001 13C17.2001 14.4833 16.6584 15.521 15.575 16.113C14.4917 16.7043 13.475 17 12.525 17H6.80005ZM9.82505 14.2H12.425C13.225 14.2 13.7124 13.9957 13.887 13.587C14.0624 13.179 14.15 12.8833 14.15 12.7C14.15 12.5167 14.0624 12.2207 13.887 11.812C13.7124 11.404 13.2 11.2 12.35 11.2H9.82505V14.2ZM9.82505 8.5H12.15C12.7 8.5 13.1 8.35833 13.35 8.075C13.6 7.79167 13.725 7.475 13.725 7.125C13.725 6.725 13.5834 6.4 13.3 6.15C13.0167 5.9 12.65 5.775 12.2 5.775H9.82505V8.5Z" fill="black"/>
</g>
</svg>
