<svg xmlns="http://www.w3.org/2000/svg" width="24" height="24" fill="currentColor" viewBox="0 0 24 24">
  <mask id="a" width="24" height="24" x="0" y="0" maskUnits="userSpaceOnUse" style="mask-type:alpha">
    <path d="M0 0h24v24H0z"/>
  </mask>
  <g mask="url(#a)">
    <path d="M3 21V3h18v18H3ZM5 9h14V5H5v4Zm5.325 5h3.35v-3h-3.35v3Zm0 5h3.35v-3h-3.35v3ZM5 14h3.325v-3H5v3Zm10.675 0H19v-3h-3.325v3ZM5 19h3.325v-3H5v3Zm10.675 0H19v-3h-3.325v3Z"/>
    <path d="M8.325 9h2V5h-2v4Zm5.35 0h2V5h-2v4Z"/>
  </g>
</svg>
